<svg width="414" height="131" viewBox="0 0 414 131" fill="none" xmlns="http://www.w3.org/2000/svg">
<rect width="414" height="131" rx="33" fill="#6F993B"/>
<path d="M51.0781 77.7109C51.0781 81.0703 50.4844 84.0156 49.2969 86.5469C48.1094 89.0781 46.4062 91.0312 44.1875 92.4062C41.9844 93.7812 39.4531 94.4688 36.5938 94.4688C33.7656 94.4688 31.2422 93.7891 29.0234 92.4297C26.8047 91.0703 25.0859 89.1328 23.8672 86.6172C22.6484 84.0859 22.0312 81.1797 22.0156 77.8984V76.2109C22.0156 72.8516 22.6172 69.8984 23.8203 67.3516C25.0391 64.7891 26.75 62.8281 28.9531 61.4688C31.1719 60.0938 33.7031 59.4062 36.5469 59.4062C39.3906 59.4062 41.9141 60.0938 44.1172 61.4688C46.3359 62.8281 48.0469 64.7891 49.25 67.3516C50.4688 69.8984 51.0781 72.8438 51.0781 76.1875V77.7109ZM43.9531 76.1641C43.9531 72.5859 43.3125 69.8672 42.0312 68.0078C40.75 66.1484 38.9219 65.2188 36.5469 65.2188C34.1875 65.2188 32.3672 66.1406 31.0859 67.9844C29.8047 69.8125 29.1562 72.5 29.1406 76.0469V77.7109C29.1406 81.1953 29.7812 83.8984 31.0625 85.8203C32.3438 87.7422 34.1875 88.7031 36.5938 88.7031C38.9531 88.7031 40.7656 87.7812 42.0312 85.9375C43.2969 84.0781 43.9375 81.375 43.9531 77.8281V76.1641ZM62.3516 71.4062C64.1484 69.25 66.4062 68.1719 69.125 68.1719C74.625 68.1719 77.4141 71.3672 77.4922 77.7578V94H70.7188V77.9453C70.7188 76.4922 70.4062 75.4219 69.7812 74.7344C69.1562 74.0312 68.1172 73.6797 66.6641 73.6797C64.6797 73.6797 63.2422 74.4453 62.3516 75.9766V94H55.5781V58H62.3516V71.4062ZM92.2344 59.875L101 84.625L109.719 59.875H118.953V94H111.898V84.6719L112.602 68.5703L103.391 94H98.5625L89.375 68.5938L90.0781 84.6719V94H83.0469V59.875H92.2344ZM134.117 84.4141L138.805 68.6406H146.07L135.875 97.9375L135.312 99.2734C133.797 102.586 131.297 104.242 127.812 104.242C126.828 104.242 125.828 104.094 124.812 103.797V98.6641L125.844 98.6875C127.125 98.6875 128.078 98.4922 128.703 98.1016C129.344 97.7109 129.844 97.0625 130.203 96.1562L131 94.0703L122.117 68.6406H129.406L134.117 84.4141ZM158.375 59.875L167.141 84.625L175.859 59.875H185.094V94H178.039V84.6719L178.742 68.5703L169.531 94H164.703L155.516 68.5938L156.219 84.6719V94H149.188V59.875H158.375ZM189.734 81.0859C189.734 78.5703 190.219 76.3281 191.188 74.3594C192.156 72.3906 193.547 70.8672 195.359 69.7891C197.188 68.7109 199.305 68.1719 201.711 68.1719C205.133 68.1719 207.922 69.2188 210.078 71.3125C212.25 73.4062 213.461 76.25 213.711 79.8438L213.758 81.5781C213.758 85.4688 212.672 88.5938 210.5 90.9531C208.328 93.2969 205.414 94.4688 201.758 94.4688C198.102 94.4688 195.18 93.2969 192.992 90.9531C190.82 88.6094 189.734 85.4219 189.734 81.3906V81.0859ZM196.508 81.5781C196.508 83.9844 196.961 85.8281 197.867 87.1094C198.773 88.375 200.07 89.0078 201.758 89.0078C203.398 89.0078 204.68 88.3828 205.602 87.1328C206.523 85.8672 206.984 83.8516 206.984 81.0859C206.984 78.7266 206.523 76.8984 205.602 75.6016C204.68 74.3047 203.383 73.6562 201.711 73.6562C200.055 73.6562 198.773 74.3047 197.867 75.6016C196.961 76.8828 196.508 78.875 196.508 81.5781ZM227.047 85.7266L231.758 68.6406H238.836L230.281 94H223.812L215.258 68.6406H222.336L227.047 85.7266ZM248.984 94H242.188V68.6406H248.984V94ZM241.789 62.0781C241.789 61.0625 242.125 60.2266 242.797 59.5703C243.484 58.9141 244.414 58.5859 245.586 58.5859C246.742 58.5859 247.664 58.9141 248.352 59.5703C249.039 60.2266 249.383 61.0625 249.383 62.0781C249.383 63.1094 249.031 63.9531 248.328 64.6094C247.641 65.2656 246.727 65.5938 245.586 65.5938C244.445 65.5938 243.523 65.2656 242.82 64.6094C242.133 63.9531 241.789 63.1094 241.789 62.0781ZM266.258 94.4688C262.539 94.4688 259.508 93.3281 257.164 91.0469C254.836 88.7656 253.672 85.7266 253.672 81.9297V81.2734C253.672 78.7266 254.164 76.4531 255.148 74.4531C256.133 72.4375 257.523 70.8906 259.32 69.8125C261.133 68.7188 263.195 68.1719 265.508 68.1719C268.977 68.1719 271.703 69.2656 273.688 71.4531C275.688 73.6406 276.688 76.7422 276.688 80.7578V83.5234H260.539C260.758 85.1797 261.414 86.5078 262.508 87.5078C263.617 88.5078 265.016 89.0078 266.703 89.0078C269.312 89.0078 271.352 88.0625 272.82 86.1719L276.148 89.8984C275.133 91.3359 273.758 92.4609 272.023 93.2734C270.289 94.0703 268.367 94.4688 266.258 94.4688ZM265.484 73.6562C264.141 73.6562 263.047 74.1094 262.203 75.0156C261.375 75.9219 260.844 77.2188 260.609 78.9062H270.031V78.3672C270 76.8672 269.594 75.7109 268.812 74.8984C268.031 74.0703 266.922 73.6562 265.484 73.6562ZM294.289 86.9922C294.289 86.1641 293.875 85.5156 293.047 85.0469C292.234 84.5625 290.922 84.1328 289.109 83.7578C283.078 82.4922 280.062 79.9297 280.062 76.0703C280.062 73.8203 280.992 71.9453 282.852 70.4453C284.727 68.9297 287.172 68.1719 290.188 68.1719C293.406 68.1719 295.977 68.9297 297.898 70.4453C299.836 71.9609 300.805 73.9297 300.805 76.3516H294.031C294.031 75.3828 293.719 74.5859 293.094 73.9609C292.469 73.3203 291.492 73 290.164 73C289.023 73 288.141 73.2578 287.516 73.7734C286.891 74.2891 286.578 74.9453 286.578 75.7422C286.578 76.4922 286.93 77.1016 287.633 77.5703C288.352 78.0234 289.555 78.4219 291.242 78.7656C292.93 79.0938 294.352 79.4688 295.508 79.8906C299.086 81.2031 300.875 83.4766 300.875 86.7109C300.875 89.0234 299.883 90.8984 297.898 92.3359C295.914 93.7578 293.352 94.4688 290.211 94.4688C288.086 94.4688 286.195 94.0938 284.539 93.3438C282.898 92.5781 281.609 91.5391 280.672 90.2266C279.734 88.8984 279.266 87.4688 279.266 85.9375H285.688C285.75 87.1406 286.195 88.0625 287.023 88.7031C287.852 89.3438 288.961 89.6641 290.352 89.6641C291.648 89.6641 292.625 89.4219 293.281 88.9375C293.953 88.4375 294.289 87.7891 294.289 86.9922ZM312.148 83.5234H306.523L305.727 59.875H312.945L312.148 83.5234ZM309.336 87.2266C310.477 87.2266 311.391 87.5625 312.078 88.2344C312.781 88.9062 313.133 89.7656 313.133 90.8125C313.133 91.8438 312.781 92.6953 312.078 93.3672C311.391 94.0391 310.477 94.375 309.336 94.375C308.211 94.375 307.297 94.0391 306.594 93.3672C305.906 92.6953 305.562 91.8438 305.562 90.8125C305.562 89.7812 305.906 88.9297 306.594 88.2578C307.297 87.5703 308.211 87.2266 309.336 87.2266Z" fill="white"/>
<path d="M376.718 88.139L386 46.37H330L339.282 88.139C339.866 90.7658 340.157 92.08 341.118 92.85C342.077 93.62 343.422 93.62 346.116 93.62H369.883C372.576 93.62 373.921 93.62 374.88 92.85C375.841 92.08 376.132 90.7675 376.718 88.139V88.139Z" fill="#2F88FF" stroke="black" stroke-width="2" stroke-linecap="round" stroke-linejoin="round"/>
<path d="M351 93.62L349.25 46.37M365 93.62L366.75 46.37L365 93.62Z" stroke="white" stroke-width="2" stroke-linecap="round" stroke-linejoin="round"/>
<path d="M337 46.37C337 46.37 335.25 41.12 337.875 38.495C340.5 35.87 345.75 36.745 345.75 36.745C345.75 36.745 345.75 31.495 349.25 29.745C352.75 27.995 358 30.62 358 30.62C358 30.62 361.5 24.7453 366.75 26.245C372 27.7448 372 34.12 372 34.12C372 34.12 376.375 34.12 379 37.62C381.625 41.12 379 46.37 379 46.37" fill="white"/>
<path d="M372 93.62H344M372 46.37H344M337 46.37C337 46.37 335.25 41.12 337.875 38.495C340.5 35.87 345.75 36.745 345.75 36.745C345.75 36.745 345.75 31.495 349.25 29.745C352.75 27.995 358 30.62 358 30.62C358 30.62 361.5 24.7453 366.75 26.245C372 27.7448 372 34.12 372 34.12C372 34.12 376.375 34.12 379 37.62C381.625 41.12 379 46.37 379 46.37" stroke="black" stroke-width="2" stroke-linecap="round" stroke-linejoin="round"/>
</svg>
